<?xml version="1.0" standalone="no"?>
<!DOCTYPE svg PUBLIC "-//W3C//DTD SVG 20010904//EN"
 "http://www.w3.org/TR/2001/REC-SVG-20010904/DTD/svg10.dtd">
<svg version="1.0" xmlns="http://www.w3.org/2000/svg"
 width="696.000000pt" height="192.000000pt" viewBox="0 0 696.000000 192.000000"
 preserveAspectRatio="xMidYMid meet">

<g transform="translate(0.000000,192.000000) scale(0.100000,-0.100000)"
fill="#000000" stroke="none">
<path d="M835 1664 c-14 -14 -16 -27 -10 -63 16 -93 -6 -586 -29 -691 -30
-131 -46 -217 -56 -291 -19 -154 -31 -214 -45 -225 -19 -15 -19 -44 0 -44 8 0
15 -9 15 -20 0 -33 38 -26 42 7 l3 28 130 -1 c112 -1 141 -4 214 -28 93 -29
134 -28 152 6 7 13 9 68 7 152 -5 138 -17 190 -110 461 -41 119 -179 441 -229
533 -30 56 -39 85 -39 122 0 57 -19 80 -45 54z m169 -506 c176 -448 216 -581
216 -726 0 -80 -9 -84 -114 -46 -75 27 -91 29 -215 28 l-133 -1 6 41 c9 60 56
316 78 424 6 31 15 154 19 272 8 225 16 297 29 283 5 -4 56 -128 114 -275z"/>
<path d="M4387 1413 c-2 -4 -15 -39 -27 -77 -13 -39 -40 -102 -61 -140 -61
-116 -89 -225 -89 -350 0 -99 1 -106 20 -106 19 0 20 7 20 94 0 52 3 101 6
110 5 12 20 16 58 16 28 0 68 5 89 11 22 6 41 8 43 6 3 -2 9 -33 15 -68 17
-113 19 -119 41 -119 22 0 22 2 2 143 -6 43 -5 47 15 47 14 0 21 6 21 20 0 15
-7 20 -25 20 -31 0 -41 35 -56 195 -13 141 -27 199 -51 203 -9 2 -18 -1 -21
-5z m23 -188 c0 -39 16 -154 25 -185 4 -12 -8 -19 -53 -28 -32 -7 -68 -12 -81
-12 -35 0 -25 36 70 236 26 57 39 53 39 -11z"/>
<path d="M3520 1328 c0 -18 16 -78 35 -133 19 -55 35 -103 35 -107 0 -5 -13
-8 -30 -8 -23 0 -30 -5 -30 -19 0 -16 8 -20 37 -23 35 -3 37 -5 50 -53 7 -27
13 -85 13 -127 0 -101 17 -168 43 -168 18 0 19 4 11 48 -4 26 -8 83 -9 127 0
44 -4 101 -9 128 l-8 47 46 0 c39 0 46 3 46 19 0 17 -8 20 -51 23 l-51 3 -33
80 c-18 44 -38 106 -45 138 -9 46 -15 57 -31 57 -15 0 -19 -7 -19 -32z"/>
<path d="M2120 1290 c-137 -24 -228 -73 -287 -156 -23 -32 -54 -81 -69 -108
-25 -48 -26 -52 -19 -175 8 -126 8 -126 41 -157 43 -41 72 -46 252 -38 139 6
152 9 152 26 0 17 -11 18 -161 18 -175 0 -221 11 -233 53 -3 12 -6 67 -6 123
l0 101 43 68 c60 97 103 138 168 163 78 29 197 52 269 52 53 0 60 2 60 20 0
18 -6 20 -82 19 -46 -1 -103 -5 -128 -9z"/>
<path d="M2435 933 c4 -164 11 -302 15 -307 14 -14 27 2 38 47 17 65 51 107
117 144 86 47 183 43 243 -10 20 -18 22 -30 22 -114 0 -84 2 -93 19 -93 22 0
31 35 31 124 0 113 -64 169 -195 170 -59 1 -79 -4 -129 -29 -32 -16 -72 -42
-88 -57 l-29 -27 2 82 c1 45 -2 146 -6 225 -7 132 -9 142 -27 142 -19 0 -20
-7 -13 -297z"/>
<path d="M5200 1010 c-34 -11 -67 -32 -87 -54 -33 -36 -33 -36 -33 -139 0
-129 12 -194 50 -272 16 -33 33 -75 36 -93 5 -22 12 -32 25 -32 27 0 24 41 -7
115 -42 99 -51 128 -57 183 -6 50 -5 52 18 52 40 0 267 50 297 66 31 16 58 61
58 98 0 14 -11 37 -24 52 -18 22 -35 29 -82 35 -95 12 -136 10 -194 -11z m224
-40 c31 -12 36 -58 9 -83 -19 -16 -159 -53 -255 -66 l-58 -8 0 44 c0 49 26 84
83 108 37 16 183 20 221 5z"/>
<path d="M3860 990 c0 -19 7 -20 120 -20 113 0 120 1 120 20 0 19 -7 20 -120
20 -113 0 -120 -1 -120 -20z"/>
<path d="M4784 1000 c-17 -5 -43 -21 -57 -34 -27 -25 -27 -26 -27 -163 0 -105
5 -156 20 -212 11 -41 20 -94 20 -118 0 -36 3 -43 20 -43 18 0 20 7 20 63 0
34 -9 95 -20 136 -14 53 -20 107 -20 183 l0 108 33 20 c46 29 149 28 178 -1
36 -36 -4 -56 -153 -74 -40 -5 -48 -10 -48 -27 0 -20 4 -21 73 -15 172 16 230
69 159 148 -25 29 -34 32 -98 35 -38 2 -83 -1 -100 -6z"/>
<path d="M3235 894 c-238 -48 -255 -60 -255 -181 0 -63 3 -74 22 -87 42 -30
260 -13 309 23 35 26 46 26 54 1 7 -23 45 -27 45 -5 0 9 -7 29 -15 45 -11 21
-12 35 -4 57 6 20 7 38 0 56 -20 52 -66 22 -64 -41 2 -66 -42 -92 -177 -102
-120 -9 -130 -5 -130 60 0 56 20 85 67 96 16 3 51 12 80 20 28 8 62 14 76 14
38 0 57 10 57 31 0 19 -17 22 -65 13z"/>
</g>
</svg>
